<svg xmlns="http://www.w3.org/2000/svg" width="512" height="512" viewBox="0 0 100 100"><defs><radialGradient id="p" cx="30%" cy="25%"><stop stop-color="#e2c1ff"/><stop offset=".55" stop-color="#9170d2"/><stop offset="1" stop-color="#35386f"/></radialGradient><clipPath id="c"><circle cx="50" cy="50" r="31"/></clipPath><filter id="g"><feGaussianBlur stdDeviation="4"/></filter></defs><rect width="100" height="100" rx="18" fill="#09172a"/><circle cx="50" cy="52" r="38" fill="#9170d2" opacity=".2" filter="url(#g)"/><ellipse cx="50" cy="52" rx="43" ry="13" fill="none" stroke="#e2c1ff" stroke-width="3" opacity=".76" transform="rotate(-22 50 52)"/><circle cx="50" cy="50" r="31" fill="url(#p)" stroke="#d8edff" stroke-opacity=".58" stroke-width="1.5"/><g clip-path="url(#c)"><circle cx="58" cy="67" r="3" fill="#35386f" opacity=".34"/><path d="M55 67a3 3 0 0 1 3 -3" fill="none" stroke="#e2c1ff" stroke-width="1.5" opacity=".38"/><circle cx="35" cy="40" r="4" fill="#35386f" opacity=".34"/><path d="M31 40a4 4 0 0 1 4 -4" fill="none" stroke="#e2c1ff" stroke-width="1.5" opacity=".38"/><circle cx="64" cy="61" r="5" fill="#35386f" opacity=".34"/><path d="M59 61a5 5 0 0 1 5 -5" fill="none" stroke="#e2c1ff" stroke-width="1.5" opacity=".38"/><circle cx="41" cy="34" r="6" fill="#35386f" opacity=".34"/><path d="M35 34a6 6 0 0 1 6 -6" fill="none" stroke="#e2c1ff" stroke-width="1.5" opacity=".38"/><circle cx="70" cy="55" r="3" fill="#35386f" opacity=".34"/><path d="M67 55a3 3 0 0 1 3 -3" fill="none" stroke="#e2c1ff" stroke-width="1.5" opacity=".38"/><path d="M20 24q22-18 49-3" fill="none" stroke="#fff" stroke-opacity=".3" stroke-width="4"/></g><ellipse cx="50" cy="52" rx="43" ry="13" fill="none" stroke="#e2c1ff" stroke-width="2" opacity=".75" transform="rotate(-22 50 52)"/><circle cx="71" cy="22" r="2" fill="#fff"/><path d="M20 79h60" stroke="#e2c1ff" stroke-opacity=".45"/></svg>
